<?xml version="1.0" encoding="UTF-8"?>
<!DOCTYPE svg PUBLIC "-//W3C//DTD SVG 1.1//EN" "http://www.w3.org/Graphics/SVG/1.1/DTD/svg11.dtd">
<svg version="1.1" xmlns="http://www.w3.org/2000/svg" xmlns:xlink="http://www.w3.org/1999/xlink" x="0" y="0" width="390.01" height="390" viewBox="0, 0, 390.01, 390">
  <g id="Layer_1">
    <path d="M195.005,390 C87.31,390 0.005,302.696 0.005,195 C0.005,87.304 87.31,0 195.005,-0 C302.701,-0 390.005,87.304 390.005,195 C390.005,302.696 302.701,390 195.005,390 z" fill="#FEB800"/>
    <path d="M195.005,380 C92.832,380 10.005,297.173 10.005,195 C10.005,92.827 92.832,10 195.005,10 C297.178,10 380.005,92.827 380.005,195 C380.005,297.173 297.178,380 195.005,380 z" fill="#223357"/>
    <path d="M195.005,370 C98.355,370 20.005,291.65 20.005,195 C20.005,98.35 98.355,20 195.005,20 C291.655,20 370.005,98.35 370.005,195 C370.005,291.65 291.655,370 195.005,370 z" fill="#BCEDF7"/>
    <path d="M388.929,175 C389.775,181.632 389.921,188.323 390.005,195 C390.064,201.686 389.604,208.354 388.929,215 L1.081,215 C0.235,208.368 0.089,201.677 0.005,195 C-0.054,188.314 0.406,181.646 1.081,175 L388.929,175 z" fill="#D81F34"/>
    <path d="M195.005,320 C125.97,320 70.005,264.036 70.005,195 C70.005,125.964 125.97,70 195.005,70 C264.041,70 320.005,125.964 320.005,195 C320.005,264.036 264.041,320 195.005,320 z" fill="#223357"/>
    <path d="M195.005,310 C131.492,310 80.005,258.513 80.005,195 C80.005,131.487 131.492,80 195.005,80 C258.518,80 310.005,131.487 310.005,195 C310.005,258.513 258.518,310 195.005,310 z" fill="#FEB800"/>
    <path d="M195.005,300 C137.015,300 90.005,252.99 90.005,195 C90.005,137.01 137.015,90 195.005,90 C252.995,90 300.005,137.01 300.005,195 C300.005,252.99 252.995,300 195.005,300 z" fill="#223357"/>
    <path d="M195.005,290 C142.538,290 100.005,247.467 100.005,195 C100.005,142.533 142.538,100 195.005,100 C247.472,100 290.005,142.533 290.005,195 C290.005,247.467 247.472,290 195.005,290 z" fill="#D81F34"/>
    <g>
      <path d="M38.503,143.227 L44.619,144.852 L43.365,149.571 L67.81,156.065 L65.699,164.012 L41.254,157.518 L40.005,162.218 L33.889,160.593 z" fill="#D82034"/>
      <path d="M48.095,119.634 L77.125,132.168 L73.866,139.717 L61.673,134.453 L60.697,136.712 L72.89,141.977 L69.631,149.526 L40.6,136.992 L43.86,129.442 L54.242,133.925 L55.217,131.666 L44.835,127.183 z" fill="#D82034"/>
      <path d="M51.846,112.848 L58.986,101.143 L64.389,104.439 L61.53,109.124 L66.649,112.247 L69.324,107.862 L74.46,110.995 L71.785,115.38 L77.72,119.001 L80.863,113.849 L86.266,117.145 L78.84,129.316 z" fill="#D82034"/>
      <path d="M81.149,98.194 L85.449,101.541 L79.079,109.725 L74.779,106.378 z" fill="#D82034"/>
      <path d="M72.063,84.325 L81.48,74.359 L86.08,78.705 L82.31,82.694 L86.669,86.812 L90.196,83.079 L94.569,87.21 L91.041,90.944 L96.095,95.719 L100.24,91.333 L104.839,95.679 L95.047,106.042 z" fill="#D82034"/>
      <path d="M101.371,57.765 L120.933,82.609 L115.27,87.068 L103.017,78.42 L111.909,89.714 L106.508,93.967 L86.946,69.123 L92.348,64.87 L104.777,73.205 L95.969,62.018 z" fill="#D82034"/>
      <path d="M108.192,53.174 L113.556,50.162 Q118.75,47.245 120.848,46.693 Q122.947,46.142 124.512,46.696 Q126.078,47.25 127.067,48.453 Q128.056,49.656 130.256,53.573 L135.679,63.229 Q137.764,66.941 138.118,68.389 Q138.472,69.836 138,71.031 Q137.529,72.225 136.409,73.224 Q135.29,74.222 132.718,75.666 L123.676,80.745 z M118.01,53.865 L128.196,72.001 Q129.746,71.131 129.754,70.308 Q129.763,69.486 128.213,66.727 L122.197,56.016 Q121.145,54.143 120.73,53.682 Q120.314,53.221 119.75,53.213 Q119.185,53.205 118.01,53.865 z" fill="#D82034"/>
      <path d="M145.999,52.305 L148.059,57.35 L138.458,61.272 L136.398,56.227 z" fill="#D82034"/>
      <path d="M168.845,48.241 Q170.068,52.847 170.36,54.82 Q170.652,56.794 169.932,58.683 Q169.211,60.572 167.492,61.938 Q165.774,63.304 163.188,63.991 Q160.734,64.643 158.567,64.36 Q156.4,64.077 154.784,62.788 Q153.169,61.5 152.441,59.672 Q151.713,57.845 150.459,53.126 L149.07,47.897 Q147.846,43.291 147.554,41.317 Q147.262,39.344 147.983,37.455 Q148.704,35.566 150.422,34.2 Q152.141,32.834 154.727,32.147 Q157.181,31.495 159.348,31.778 Q161.514,32.061 163.13,33.35 Q164.745,34.638 165.473,36.465 Q166.202,38.293 167.455,43.012 z M158.23,40.31 Q157.663,38.177 157.269,37.645 Q156.875,37.113 156.139,37.309 Q155.516,37.474 155.313,38.043 Q155.111,38.612 155.738,40.972 L159.529,55.243 Q160.237,57.904 160.619,58.469 Q161.002,59.035 161.795,58.824 Q162.606,58.608 162.642,57.831 Q162.678,57.053 161.961,54.354 z" fill="#D82034"/>
      <path d="M171.487,29.339 L185.31,27.653 L186.076,33.934 L180.415,34.625 L181.141,40.577 L186.182,39.962 L186.91,45.933 L181.87,46.548 L183.478,59.732 L175.315,60.727 z" fill="#D82034"/>
      <path d="M200.395,43.322 L200.457,48.771 L190.086,48.889 L190.024,43.44 z" fill="#D82034"/>
      <path d="M205.828,27.534 L219.48,28.796 L218.898,35.097 L213.433,34.592 L212.881,40.563 L217.996,41.036 L217.442,47.026 L212.327,46.553 L211.687,53.476 L217.696,54.032 L217.113,60.333 L202.916,59.02 z" fill="#D82034"/>
      <path d="M244.682,33.988 L237.356,64.749 L230.345,63.079 L229.515,48.104 L226.184,62.088 L219.496,60.496 L226.822,29.735 L233.51,31.328 L234.695,46.246 L237.994,32.395 z" fill="#D82034"/>
      <path d="M252.814,36.628 L258.483,39.017 Q263.973,41.331 265.695,42.65 Q267.417,43.969 267.94,45.546 Q268.462,47.123 268.119,48.642 Q267.775,50.161 266.031,54.3 L261.73,64.505 Q260.076,68.429 259.15,69.596 Q258.223,70.764 256.99,71.124 Q255.758,71.484 254.283,71.212 Q252.808,70.94 250.09,69.794 L240.533,65.767 z M258.29,44.807 L250.211,63.975 Q251.849,64.665 252.504,64.167 Q253.159,63.67 254.388,60.754 L259.159,49.433 Q259.993,47.453 260.102,46.842 Q260.212,46.231 259.872,45.781 Q259.532,45.33 258.29,44.807 z" fill="#D82034"/>
      <path d="M276.708,65.955 L273.983,70.674 L265.002,65.488 L267.726,60.769 z" fill="#D82034"/>
      <path d="M303.139,65.377 L299.34,70.438 L295.435,67.506 L280.249,87.734 L273.674,82.797 L288.859,62.57 L284.97,59.65 L288.769,54.589 z" fill="#D82034"/>
      <path d="M308.091,96.094 Q304.7,99.443 303.132,100.676 Q301.564,101.909 299.566,102.221 Q297.568,102.534 295.529,101.72 Q293.491,100.906 291.61,99.002 Q289.826,97.196 288.996,95.174 Q288.167,93.152 288.483,91.11 Q288.8,89.068 290.025,87.529 Q291.25,85.99 294.724,82.559 L298.573,78.757 Q301.964,75.409 303.532,74.175 Q305.101,72.942 307.098,72.63 Q309.096,72.318 311.135,73.132 Q313.174,73.946 315.054,75.85 Q316.838,77.656 317.668,79.678 Q318.498,81.699 318.181,83.741 Q317.865,85.783 316.64,87.323 Q315.415,88.862 311.941,92.293 z M309.706,82.943 Q311.277,81.392 311.543,80.786 Q311.809,80.18 311.274,79.638 Q310.821,79.179 310.226,79.286 Q309.632,79.393 307.895,81.108 L297.389,91.484 Q295.429,93.419 295.129,94.031 Q294.828,94.644 295.404,95.228 Q295.994,95.825 296.687,95.471 Q297.38,95.116 299.367,93.153 z" fill="#D82034"/>
      <path d="M318.768,105.64 L314.461,108.977 L308.109,100.779 L312.416,97.441 z" fill="#D82034"/>
      <path d="M334.763,100.578 L341.931,112.265 L336.537,115.574 L333.667,110.896 L328.556,114.031 L331.242,118.409 L326.114,121.554 L323.428,117.176 L317.501,120.811 L320.656,125.956 L315.262,129.264 L307.808,117.11 z" fill="#D82034"/>
      <path d="M352.727,135.412 L323.788,148.158 L320.883,141.562 L332.315,131.854 L319.159,137.648 L316.388,131.356 L345.327,118.61 L348.098,124.902 L336.925,134.86 L349.956,129.121 z" fill="#D82034"/>
      <path d="M355.605,143.392 L357.139,149.35 Q358.624,155.119 358.617,157.289 Q358.611,159.458 357.673,160.829 Q356.735,162.2 355.319,162.847 Q353.902,163.494 349.552,164.614 L338.827,167.374 Q334.704,168.436 333.214,168.406 Q331.724,168.376 330.69,167.613 Q329.657,166.851 328.98,165.512 Q328.303,164.174 327.567,161.318 L324.982,151.274 z M352.415,152.704 L332.271,157.889 Q332.714,159.61 333.507,159.829 Q334.3,160.049 337.364,159.26 L349.261,156.198 Q351.342,155.662 351.894,155.379 Q352.446,155.096 352.599,154.552 Q352.751,154.009 352.415,152.704 z" fill="#D82034"/>
    </g>
    <g>
      <path d="M78.136,258.243 L47.485,267.07 L42.49,255.633 L69.567,238.627 L73.038,246.573 Q61.666,253.182 53.655,257.384 Q62.272,254.324 69.05,252.13 L74.665,250.296 z" fill="#D81F34"/>
      <path d="M84.699,268.539 L57.789,285.144 L53.471,278.146 L80.382,261.542 z" fill="#D81F34"/>
      <path d="M87.722,273.409 L91.677,278.122 Q95.506,282.685 96.437,284.645 Q97.368,286.604 97.114,288.246 Q96.859,289.887 95.861,291.082 Q94.862,292.277 91.421,295.165 L82.939,302.284 Q79.677,305.022 78.32,305.638 Q76.963,306.254 75.702,306.012 Q74.441,305.77 73.252,304.855 Q72.064,303.94 70.168,301.681 L63.5,293.737 z M88.864,283.186 L72.931,296.558 Q74.073,297.919 74.883,297.775 Q75.693,297.631 78.116,295.597 L87.526,287.699 Q89.172,286.318 89.548,285.824 Q89.924,285.33 89.827,284.774 Q89.73,284.218 88.864,283.186 z" fill="#D81F34"/>
      <path d="M103.666,291.432 L114.037,300.4 L109.898,305.187 L105.746,301.597 L101.824,306.132 L105.71,309.492 L101.775,314.042 L97.889,310.682 L93.341,315.942 L97.906,319.889 L93.767,324.676 L82.982,315.35 z" fill="#D81F34"/>
      <path d="M124.114,329.089 Q121.608,333.143 120.375,334.711 Q119.142,336.279 117.274,337.054 Q115.406,337.828 113.233,337.518 Q111.06,337.208 108.783,335.801 Q106.624,334.466 105.34,332.698 Q104.057,330.929 103.883,328.87 Q103.709,326.811 104.537,325.026 Q105.364,323.241 107.931,319.088 L110.776,314.486 Q113.281,310.432 114.515,308.863 Q115.748,307.295 117.616,306.521 Q119.483,305.746 121.657,306.056 Q123.83,306.366 126.106,307.773 Q128.266,309.108 129.549,310.877 Q130.832,312.646 131.006,314.705 Q131.18,316.764 130.353,318.549 Q129.525,320.333 126.958,324.487 z M122.582,315.927 Q123.742,314.05 123.858,313.398 Q123.974,312.746 123.326,312.346 Q122.778,312.007 122.225,312.251 Q121.672,312.495 120.389,314.572 L112.626,327.132 Q111.178,329.475 111.03,330.141 Q110.883,330.808 111.58,331.239 Q112.295,331.68 112.884,331.172 Q113.474,330.664 114.942,328.288 z" fill="#D81F34"/>
      <path d="M148.578,319.875 L156.493,322.313 Q159.703,323.302 161.274,324.338 Q162.846,325.374 163.42,326.594 Q163.995,327.813 163.886,329.261 Q163.777,330.709 162.903,333.546 L162.092,336.178 Q161.201,339.071 160.195,340.212 Q159.19,341.354 157.375,341.571 Q155.561,341.789 152.985,340.995 L150.876,340.345 L147.126,352.515 L139.268,350.094 z M154.844,327.466 L152.474,335.156 Q152.805,335.279 153.047,335.353 Q154.13,335.687 154.714,335.284 Q155.298,334.882 155.815,333.202 L156.58,330.719 Q157.057,329.17 156.716,328.554 Q156.374,327.938 154.844,327.466 z" fill="#D81F34"/>
      <path d="M170.017,325.925 L183.58,327.932 L182.653,334.192 L177.224,333.388 L176.346,339.32 L181.428,340.072 L180.547,346.023 L175.465,345.271 L174.447,352.149 L180.417,353.033 L179.491,359.293 L165.386,357.205 z" fill="#D81F34"/>
      <path d="M206.766,328.144 L207.201,359.762 L199.995,359.861 L195.52,345.547 L195.718,359.92 L188.844,360.015 L188.408,328.397 L195.282,328.302 L200.088,342.476 L199.891,328.239 z" fill="#D81F34"/>
      <path d="M228.242,324.59 L229.348,330.82 L224.54,331.674 L228.961,356.577 L220.865,358.015 L216.444,333.111 L211.656,333.961 L210.55,327.73 z" fill="#D81F34"/>
      <path d="M244.144,319.464 L258.753,347.9 L250.781,350.602 L248.568,345.351 L245.775,346.298 L247.137,351.838 L239.072,354.571 L232.879,323.282 z M246.546,340.118 Q244.23,335.232 241.105,327.959 Q242.831,336.943 243.883,341.021 z" fill="#D81F34"/>
      <path d="M264.834,309.587 L267.703,315.228 L263.351,317.441 L274.816,339.986 L267.486,343.714 L256.021,321.168 L251.686,323.373 L248.818,317.732 z" fill="#D81F34"/>
      <path d="M283.056,296.441 L301.922,321.818 L295.323,326.724 L287.399,316.065 L285.424,317.534 L293.348,328.192 L286.749,333.098 L267.883,307.721 L274.482,302.816 L281.229,311.891 L283.204,310.423 L276.457,301.347 z" fill="#D81F34"/>
      <path d="M292.713,286.818 L310.765,304.534 L314.267,300.965 L318.783,305.398 L309.522,314.835 L286.953,292.686 z" fill="#D81F34"/>
      <path d="M324.683,276.157 Q328.546,278.947 330.022,280.289 Q331.498,281.632 332.136,283.55 Q332.774,285.469 332.309,287.614 Q331.844,289.76 330.278,291.929 Q328.791,293.988 326.935,295.14 Q325.078,296.293 323.012,296.319 Q320.946,296.345 319.225,295.391 Q317.504,294.438 313.546,291.579 L309.16,288.412 Q305.296,285.622 303.82,284.28 Q302.345,282.937 301.706,281.019 Q301.068,279.1 301.533,276.955 Q301.998,274.809 303.565,272.64 Q305.051,270.581 306.908,269.428 Q308.764,268.275 310.83,268.25 Q312.896,268.224 314.617,269.177 Q316.338,270.131 320.296,272.989 z M311.445,276.74 Q309.656,275.448 309.014,275.286 Q308.372,275.124 307.926,275.741 Q307.549,276.264 307.753,276.832 Q307.956,277.401 309.936,278.83 L321.906,287.474 Q324.139,289.087 324.793,289.282 Q325.447,289.477 325.927,288.812 Q326.419,288.131 325.955,287.507 Q325.49,286.882 323.226,285.247 z" fill="#D81F34"/>
      <path d="M319.986,244.862 L348.458,258.62 L345.322,265.109 L330.518,262.706 L343.461,268.96 L340.47,275.15 L311.998,261.392 L314.99,255.202 L329.815,257.247 L316.995,251.052 z" fill="#D81F34"/>
    </g>
    <text transform="matrix(1, 0, 0, 1, 38.5, 194.455)">
      <tspan x="-27.5" y="7.5" font-family="Impact" font-size="20" kerning="1" fill="#BCEDF7">CVPR</tspan>
    </text>
    <text transform="matrix(1, 0, 0, 1, 356, 196.955)">
      <tspan x="-25" y="5" font-family="Impact" font-size="20" kerning="1" fill="#BCEDF7">2020</tspan>
    </text>
    <path d="M123,150 L268,150 L268,240 L123,240 L123,150 z" fill="#BCEDF7"/>
    <path d="M118,165 L273,165 L273,170 L118,170 L118,165 z" fill="#D81F34"/>
    <path d="M151.026,175 L239.974,175 C251.31,175 260.5,185.074 260.5,197.5 L260.5,212.5 C260.5,224.926 251.31,235 239.974,235 L151.026,235 C139.69,235 130.5,224.926 130.5,212.5 L130.5,197.5 C130.5,185.074 139.69,175 151.026,175 z" fill="#D81F34"/>
    <path d="M155.5,175 L235.5,175 L235.5,240 L155.5,240 L155.5,175 z" fill="#BCEDF7"/>
    <path d="M160.5,225 C149.454,225 140.5,216.046 140.5,205 C140.5,193.954 149.454,185 160.5,185 C171.546,185 180.5,193.954 180.5,205 C180.5,216.046 171.546,225 160.5,225 z" fill="#BCEDF7"/>
    <path d="M230.5,225 C219.454,225 210.5,216.046 210.5,205 C210.5,193.954 219.454,185 230.5,185 C241.546,185 250.5,193.954 250.5,205 C250.5,216.046 241.546,225 230.5,225 z" fill="#BCEDF7"/>
    <path d="M160.5,215 C154.977,215 150.5,210.523 150.5,205 C150.5,199.477 154.977,195 160.5,195 C166.023,195 170.5,199.477 170.5,205 C170.5,210.523 166.023,215 160.5,215 z" fill="#D81F34"/>
    <path d="M230.5,215 C224.977,215 220.5,210.523 220.5,205 C220.5,199.477 224.977,195 230.5,195 C236.023,195 240.5,199.477 240.5,205 C240.5,210.523 236.023,215 230.5,215 z" fill="#D81F34"/>
    <path d="M155.5,170 L235.5,170 L235.5,240 L155.5,240 L155.5,170 z" fill="#BCEDF7"/>
    <path d="M160.5,175 L230.5,175 L230.5,235 L160.5,235 L160.5,175 z" fill="#D81F34"/>
    <text transform="matrix(1, 0, 0, 1, 195.5, 205)">
      <tspan x="-12.879" y="18" font-family="Impact" font-size="48" fill="#FEB800">5</tspan>
    </text>
  </g>
</svg>
